<svg xmlns="http://www.w3.org/2000/svg" width="18" height="18" fill="none"><path fill-rule="evenodd" clip-rule="evenodd" d="M14.24 4.082A7.103 7.103 0 009.192 2C5.261 2 2.061 5.184 2.06 9.099a7.057 7.057 0 00.952 3.549L2 16.327l3.782-.988a7.152 7.152 0 003.408.865h.003c3.932 0 7.132-3.185 7.134-7.1a7.039 7.039 0 00-2.088-5.022zM9.192 15.003H9.19a5.941 5.941 0 01-3.018-.821l-.217-.128-2.243.586.599-2.179-.141-.223a5.868 5.868 0 01-.905-3.14c0-3.252 2.66-5.9 5.93-5.9 3.275.003 5.928 2.646 5.926 5.906-.001 3.253-2.66 5.9-5.929 5.9zm3.253-4.42c-.179-.088-1.055-.517-1.218-.578-.164-.06-.283-.089-.401.089-.119.178-.46.577-.565.695-.104.119-.208.133-.386.045-.178-.09-.752-.277-1.433-.88a5.317 5.317 0 01-.992-1.23c-.103-.177-.011-.272.078-.362.08-.079.178-.207.267-.31.09-.104.12-.178.178-.296.06-.119.03-.222-.014-.311-.045-.089-.401-.962-.55-1.317-.145-.346-.291-.3-.4-.306a7.211 7.211 0 00-.343-.007.656.656 0 00-.475.222c-.163.178-.624.607-.624 1.48s.639 1.717.728 1.835c.089.119 1.257 1.91 3.044 2.679.332.142.671.267 1.016.374.427.136.816.116 1.123.07.342-.05 1.054-.429 1.203-.843.149-.414.148-.77.102-.843-.045-.074-.16-.115-.338-.204v-.001z" fill="#6C6C6C"/></svg>